<svg xmlns="http://www.w3.org/2000/svg" viewBox="0 0 209.82 53"><defs><style>.cls-1{isolation:isolate;}.cls-2{fill:#4d36f8;}</style></defs><g id="Layer_2" data-name="Layer 2"><g id="Layer_1-2" data-name="Layer 1"><g class="cls-1"><g class="cls-1"><path class="cls-2" d="M78.78,25.36a1.7,1.7,0,0,1-.46.54,1,1,0,0,1-.6.18,1.58,1.58,0,0,1-.82-.28c-.3-.19-.65-.4-1.06-.62a7.67,7.67,0,0,0-1.43-.62,6.72,6.72,0,0,0-3.7,0,3.93,3.93,0,0,0-1.27.67,2.77,2.77,0,0,0-.76,1,3.34,3.34,0,0,0-.25,1.32,2.32,2.32,0,0,0,.51,1.53,4.32,4.32,0,0,0,1.36,1.05,13.6,13.6,0,0,0,1.93.77l2.21.73a21.3,21.3,0,0,1,2.21.9,7.57,7.57,0,0,1,1.93,1.29,6.07,6.07,0,0,1,1.36,1.92,6.73,6.73,0,0,1,.51,2.76,9,9,0,0,1-.6,3.3,7.56,7.56,0,0,1-1.77,2.68,8.27,8.27,0,0,1-2.83,1.8,10.39,10.39,0,0,1-3.83.66A11.77,11.77,0,0,1,69,46.69,12.7,12.7,0,0,1,66.65,46a12.3,12.3,0,0,1-2.07-1.08,10.07,10.07,0,0,1-1.73-1.4l1.42-2.32a1.62,1.62,0,0,1,.47-.43,1.19,1.19,0,0,1,.61-.17,1.76,1.76,0,0,1,1,.37c.35.25.76.52,1.24.82a9.86,9.86,0,0,0,1.69.82,6.36,6.36,0,0,0,2.31.37,4.75,4.75,0,0,0,3.2-1,3.53,3.53,0,0,0,1.14-2.82,2.62,2.62,0,0,0-.51-1.67A4.12,4.12,0,0,0,74,36.42a9.7,9.7,0,0,0-1.93-.75c-.72-.2-1.45-.43-2.2-.67a18.4,18.4,0,0,1-2.19-.86,7.31,7.31,0,0,1-1.93-1.31,6.18,6.18,0,0,1-1.36-2,7.77,7.77,0,0,1-.51-3A7.08,7.08,0,0,1,64.48,25a7,7,0,0,1,1.64-2.39A8,8,0,0,1,68.79,21a9.76,9.76,0,0,1,3.63-.63,12.11,12.11,0,0,1,4.25.72,9.59,9.59,0,0,1,3.31,2Z"/></g><g class="cls-1"><path class="cls-2" d="M92.08,27.89a10.11,10.11,0,0,1,3.73.67,8,8,0,0,1,2.88,1.89,8.27,8.27,0,0,1,1.85,3,11.38,11.38,0,0,1,.65,3.94,11.5,11.5,0,0,1-.65,4,8.44,8.44,0,0,1-1.85,3,8,8,0,0,1-2.88,1.9,9.91,9.91,0,0,1-3.73.67,10,10,0,0,1-3.76-.67,8.09,8.09,0,0,1-2.89-1.9,8.6,8.6,0,0,1-1.86-3,11.27,11.27,0,0,1-.65-4,11.15,11.15,0,0,1,.65-3.94,8.42,8.42,0,0,1,1.86-3,8.06,8.06,0,0,1,2.89-1.89A10.23,10.23,0,0,1,92.08,27.89Zm0,15.61A3.92,3.92,0,0,0,95.49,42a7.72,7.72,0,0,0,1.11-4.53,7.85,7.85,0,0,0-1.11-4.56,3.91,3.91,0,0,0-3.41-1.56,4,4,0,0,0-3.47,1.57,7.78,7.78,0,0,0-1.12,4.55,7.65,7.65,0,0,0,1.12,4.52A4,4,0,0,0,92.08,43.5Z"/><path class="cls-2" d="M117.82,32.09a1.79,1.79,0,0,1-.39.39.88.88,0,0,1-.55.15,1.17,1.17,0,0,1-.66-.21l-.78-.47a6,6,0,0,0-1.07-.47,5.19,5.19,0,0,0-1.54-.2,4.72,4.72,0,0,0-2,.42,3.86,3.86,0,0,0-1.47,1.22,5.34,5.34,0,0,0-.87,1.91,10.4,10.4,0,0,0-.29,2.55,10,10,0,0,0,.32,2.63,5.49,5.49,0,0,0,.91,1.93,3.75,3.75,0,0,0,1.44,1.19,4.34,4.34,0,0,0,1.9.41,4.59,4.59,0,0,0,1.72-.27,5.21,5.21,0,0,0,1.11-.57c.3-.21.56-.4.78-.58a1.2,1.2,0,0,1,.75-.26.9.9,0,0,1,.81.42l1.28,1.62a8.34,8.34,0,0,1-1.6,1.45,9.05,9.05,0,0,1-1.8.93,8.87,8.87,0,0,1-1.9.5,14.47,14.47,0,0,1-2,.14,8.12,8.12,0,0,1-3.22-.64,7.51,7.51,0,0,1-2.64-1.86,9,9,0,0,1-1.8-3,12.72,12.72,0,0,1-.07-7.81,8.67,8.67,0,0,1,1.72-3,8,8,0,0,1,2.81-2,9.68,9.68,0,0,1,3.85-.72,9.26,9.26,0,0,1,3.63.67,8.77,8.77,0,0,1,2.8,1.91Z"/><path class="cls-2" d="M127.16,22.8a2.65,2.65,0,0,1-.23,1.08,2.94,2.94,0,0,1-.63.88,2.78,2.78,0,0,1-.9.6,2.64,2.64,0,0,1-1.12.23,2.54,2.54,0,0,1-1.09-.23,2.74,2.74,0,0,1-.89-.6,2.86,2.86,0,0,1-.6-.88,2.65,2.65,0,0,1-.23-1.08,2.8,2.8,0,0,1,.23-1.12,3.08,3.08,0,0,1,.6-.9,2.91,2.91,0,0,1,.89-.6,2.69,2.69,0,0,1,1.09-.22,2.8,2.8,0,0,1,1.12.22,3,3,0,0,1,.9.6,3.17,3.17,0,0,1,.63.9A2.8,2.8,0,0,1,127.16,22.8Zm-.61,5.38V46.65h-4.47V28.18Z"/><path class="cls-2" d="M130.65,30.76a11,11,0,0,1,7.67-2.92,7.57,7.57,0,0,1,2.9.53,6.25,6.25,0,0,1,2.16,1.48,6.31,6.31,0,0,1,1.34,2.26,8.53,8.53,0,0,1,.46,2.88V46.65h-2a2,2,0,0,1-1-.19,1.31,1.31,0,0,1-.54-.76l-.4-1.34a15.84,15.84,0,0,1-1.36,1.11,7.79,7.79,0,0,1-1.39.8,7.51,7.51,0,0,1-1.54.5,9.13,9.13,0,0,1-1.81.17,7.09,7.09,0,0,1-2.16-.32,4.74,4.74,0,0,1-1.71-.94,4.15,4.15,0,0,1-1.11-1.57,5.44,5.44,0,0,1-.4-2.18,4.5,4.5,0,0,1,.23-1.39,4.26,4.26,0,0,1,.77-1.32A6.11,6.11,0,0,1,132.15,38a8.67,8.67,0,0,1,2.07-1,18.28,18.28,0,0,1,2.88-.68,28.36,28.36,0,0,1,3.74-.31V35a4,4,0,0,0-.79-2.75,2.92,2.92,0,0,0-2.29-.89,5.4,5.4,0,0,0-1.79.25,7.67,7.67,0,0,0-1.25.57l-1,.57a2,2,0,0,1-1,.25,1.22,1.22,0,0,1-.79-.25,2.16,2.16,0,0,1-.53-.56Zm10.19,8a25.08,25.08,0,0,0-3.24.33,8.65,8.65,0,0,0-2.11.62,2.85,2.85,0,0,0-1.13.88,2.19,2.19,0,0,0,.35,2.77,3,3,0,0,0,1.81.51,5.31,5.31,0,0,0,2.37-.5,7.19,7.19,0,0,0,2-1.5Z"/></g></g><g class="cls-1"><path class="cls-2" d="M155.34,19.9V46.65h-4.45V19.9Z"/></g><g class="cls-1"><path class="cls-2" d="M188.85,20.62v26h-4.26V29.84c0-.67,0-1.4.1-2.18l-7.86,14.78a1.81,1.81,0,0,1-1.71,1.06h-.69a1.83,1.83,0,0,1-1.71-1.06l-7.95-14.83.09,1.17c0,.38,0,.73,0,1.06V46.65h-4.26v-26h3.65l.56,0a1.3,1.3,0,0,1,.42.09,1.12,1.12,0,0,1,.35.23,2,2,0,0,1,.29.44l7.8,14.45c.2.38.39.78.56,1.19s.35.83.52,1.26c.16-.45.34-.87.52-1.29s.37-.81.57-1.2l7.69-14.41a2,2,0,0,1,.31-.44,1,1,0,0,1,.35-.23,1.3,1.3,0,0,1,.42-.09l.56,0Z"/></g><g class="cls-1"><path class="cls-2" d="M197.35,38a8.83,8.83,0,0,0,.5,2.46,5,5,0,0,0,1,1.71,4.17,4.17,0,0,0,1.54,1,5.66,5.66,0,0,0,2,.33,6.09,6.09,0,0,0,1.87-.25,8,8,0,0,0,1.36-.56c.4-.2.74-.39,1-.56a1.83,1.83,0,0,1,.86-.25.9.9,0,0,1,.82.42l1.28,1.62A7.54,7.54,0,0,1,208,45.35a10,10,0,0,1-1.92.93,10.38,10.38,0,0,1-2,.5,15.69,15.69,0,0,1-2,.14,9.73,9.73,0,0,1-3.58-.64,7.77,7.77,0,0,1-2.88-1.89,8.83,8.83,0,0,1-1.93-3.1,11.91,11.91,0,0,1-.7-4.27,10.11,10.11,0,0,1,.61-3.55,8.46,8.46,0,0,1,1.76-2.9,8.13,8.13,0,0,1,2.79-2,9.13,9.13,0,0,1,3.71-.72,9,9,0,0,1,3.22.56,7,7,0,0,1,2.54,1.63,7.69,7.69,0,0,1,1.67,2.63,9.82,9.82,0,0,1,.6,3.55,2.77,2.77,0,0,1-.22,1.36.87.87,0,0,1-.82.35Zm8.47-2.68a5.45,5.45,0,0,0-.24-1.63,3.79,3.79,0,0,0-.73-1.34,3.47,3.47,0,0,0-1.23-.91,4.29,4.29,0,0,0-1.74-.33,4.13,4.13,0,0,0-3,1.1,5.34,5.34,0,0,0-1.41,3.11Z"/></g><path class="cls-2" d="M10.75,23.21H2.48A2.48,2.48,0,0,0,0,25.69H0V50.52A2.48,2.48,0,0,0,2.48,53h8.27a2.48,2.48,0,0,0,2.49-2.47h0V25.66A2.48,2.48,0,0,0,10.75,23.21ZM6.62,48.87a2.49,2.49,0,1,1,2.48-2.5h0a2.49,2.49,0,0,1-2.48,2.45Zm33.1-40.4c0,4.39-2.69,6.85-3.44,9.78H46.8a6.19,6.19,0,0,1,6.16,6,7.49,7.49,0,0,1-2,5.09h0a8.63,8.63,0,0,1-1,8.22,8.14,8.14,0,0,1-1.65,7.73,5.5,5.5,0,0,1-.64,4.62c-2.11,3-7.34,3.07-11.76,3.07h-.3c-5,0-9.08-1.82-12.37-3.28A16.49,16.49,0,0,0,17.76,48a1.24,1.24,0,0,1-1.22-1.24V24.66a1.24,1.24,0,0,1,.37-.89c4.09-4.05,5.86-8.33,9.21-11.7,1.54-1.53,2.09-3.85,2.63-6.07.46-1.91,1.42-6,3.51-6,2.49,0,7.46.85,7.46,8.45Z"/></g></g></svg>