<svg id="Layer_1" data-name="Layer 1" xmlns="http://www.w3.org/2000/svg" viewBox="0 0 210.95 56.93"><defs><style>.cls-1,.cls-2,.cls-4,.cls-5{isolation:isolate;}.cls-2,.cls-4,.cls-5{font-size:36px;font-family:Lato-Bold, Lato;font-weight:700;}.cls-2,.cls-4,.cls-5,.cls-6{fill:#4d36f8;}.cls-3{letter-spacing:0em;}.cls-4{letter-spacing:-0.01em;}.cls-5{letter-spacing:-0.02em;}</style></defs><g class="cls-1"><text class="cls-2" transform="translate(62.02 46.67)"><tspan class="cls-3">S</tspan><tspan x="19.69" y="0">ocia</tspan></text><text class="cls-4" transform="translate(148.64 46.67)">l</text><text class="cls-5" transform="translate(157.73 46.67)">M</text><text class="cls-2" transform="translate(191.73 46.67)">e</text></g><path class="cls-6" d="M78.44,23.21H70.17a2.48,2.48,0,0,0-2.48,2.48h0V50.52A2.48,2.48,0,0,0,70.17,53h8.27a2.48,2.48,0,0,0,2.49-2.47h0V25.66A2.48,2.48,0,0,0,78.44,23.21ZM74.31,48.87a2.49,2.49,0,1,1,2.48-2.5h0a2.49,2.49,0,0,1-2.48,2.45Zm33.1-40.4c0,4.39-2.69,6.85-3.44,9.78h10.52a6.19,6.19,0,0,1,6.16,6,7.49,7.49,0,0,1-2,5.09h0a8.63,8.63,0,0,1-1,8.22A8.14,8.14,0,0,1,116,45.29a5.5,5.5,0,0,1-.64,4.62c-2.11,3-7.34,3.07-11.76,3.07h-.3c-5,0-9.08-1.82-12.37-3.28A16.46,16.46,0,0,0,85.45,48a1.24,1.24,0,0,1-1.22-1.24V24.66a1.24,1.24,0,0,1,.37-.89c4.09-4.05,5.86-8.33,9.21-11.7C95.35,10.54,95.9,8.22,96.44,6c.46-1.91,1.42-6,3.51-6,2.49,0,7.46.85,7.46,8.45Z" transform="translate(-67.69 0.02)"/></svg>